PathFileType	4	(X/Y/Z)	21_coords_data.trc
DataRate	CameraRate	NumFrames	NumMarkers	Units	OrigDataRate	OrigDataStartFrame	OrigNumFrames
30.0	30.0	6	21	m	30.0	1	59
Frame#	Time	THUMB_TIP	THUMB_IP	THUMB_MCP	THUMB_CMC	INDEX_TIP	INDEX_DIP	INDEX_PIP	INDEX_MCP	MIDDLE_TIP	MIDDLE_DIP	MIDDLE_PIP	MIDDLE_MCP	RING_TIP	RING_DIP	RING_PIP	RING_MCP	PINKY_TIP	PINKY_DIP	PINKY_PIP	PINKY_MCP	WRIST
X1	Y1	Z1	X2	Y2	Z2	X3	Y3	Z3	X4	Y4	Z4	X5	Y5	Z5	X6	Y6	Z6	X7	Y7	Z7	X8	Y8	Z8	X9	Y9	Z9	X10	Y10	Z10	X11	Y11	Z11	X12	Y12	Z12	X13	Y13	Z13	X14	Y14	Z14	X15	Y15	Z15	X16	Y16	Z16	X17	Y17	Z17	X18	Y18	Z18	X19	Y19	Z19	X20	Y20	Z20	X21	Y21	Z21
0	-2.749317978547796e-18	0.47242590875345614	-0.02721244687764024	-0.17185598105664857	0.47662455136765614	-0.02804172565215235	-0.14927980562961107	0.4781579771756856	-0.030487294167082846	-0.11828806802214464	0.4804232722202226	-0.025853523131291967	-0.07397907791461611	0.5080569179609299	-0.011874711790685444	-0.09819962564597695	0.5258302243794692	-0.015290387475476286	-0.09753423961588759	0.540703005153456	-0.0013006563477411248	-0.11220044730644663	0.5020338570318408	0.016223148725345915	-0.11555444988680363	0.5133326135505	-0.012522611851775833	-0.09615063312925021	0.5248091556929101	-0.009349223178425126	-0.08250444007839053	0.5444198425090921	0.006506040720012707	-0.09711406427987235	0.5052823319576538	0.027984075585404833	-0.09887395267322596	0.514783173944134	-0.00267629289266913	-0.07094062715167049	0.5319042686256922	0.0017937398349816558	-0.07438836906759916	0.5474070038780068	0.018297532835946373	-0.08475514268709883	0.5105692489381328	0.034318098553283494	-0.08016797372506113	0.5401957352771858	0.011084456571895385	-0.07427211337319817	0.5364014840813205	-0.0011199265056855978	-0.06288542414593223	0.5438262072918387	0.017486297204157175	-0.0691698448436957	0.5112036716454447	0.03133490528081029	-0.06247136193045244	0.46228308100186083	-0.023011742144276925	-0.051989820119430985
1	0.03333333333333339	0.47256043049246726	-0.026986896655721182	-0.17219597969394773	0.47669284087404473	-0.027831683880097047	-0.14960816176073954	0.47816052018154726	-0.030325519986836302	-0.11861708725656894	0.4800546183211237	-0.025982703208065505	-0.07426122705001137	0.5074213792395003	-0.011553399916545581	-0.09799022392505108	0.5252549996236489	-0.014706572748359514	-0.09785063493268031	0.5404932398956218	-0.00111758435572884	-0.11251846574976354	0.5016764018772715	0.016077915238560836	-0.1158656995270706	0.5092701063126959	-0.013265386843702376	-0.09162671054446381	0.5243839189146368	-0.009337867461967297	-0.08245352897319258	0.5440791328817071	0.006532928548290018	-0.09693199335281932	0.5050737125231737	0.028242338267727596	-0.09878311012053076	0.513743805029637	-0.0017897866350908842	-0.07151779218926946	0.5311113079334354	0.002273818461625776	-0.0741363712895633	0.5468639333292593	0.018575457953553864	-0.08444613957086133	0.5101102873379033	0.03481131848844077	-0.0799420111275555	0.5394233192579285	0.011748439630301588	-0.07401405916839554	0.5359278231106532	-0.000497379339511772	-0.06257633979594446	0.5435798497751313	0.018090215709408497	-0.06863932727931199	0.5108471882654959	0.031731963484011416	-0.062054569185824415	0.46228308100186083	-0.023011742144276925	-0.051989820119430985
2	0.06666666666666676	0.47266469292605356	-0.026782815564464157	-0.1724610585174967	0.4767392453853168	-0.027649391752792907	-0.14986355715193567	0.47814848369883955	-0.03019144414920716	-0.1188736875654145	0.4797546609673783	-0.02607589764646756	-0.07448480977417249	0.5069462720156954	-0.011302977035220874	-0.09782459732968429	0.5248165910283852	-0.014230639388867705	-0.09810830761806999	0.5403185959645926	-0.000942717033774243	-0.1127755771472908	0.5013817417653238	0.01598290332527441	-0.11610436889899922	0.5074351954615545	-0.013458640103525044	-0.08829827537897206	0.5240542872810579	-0.00930689408951324	-0.08241875225799922	0.5438068262590681	0.006581421367567675	-0.09679957928075689	0.5048959301067447	0.02845448811114415	-0.09871243914341521	0.5129797465464321	-0.0011141680776767249	-0.07194470779668061	0.530493932084592	0.0026586378348277817	-0.07394951214660672	0.5464305640509429	0.018811223843416047	-0.08421097918617981	0.5097372728054295	0.035200258885537905	-0.07976994980550267	0.538276971181157	0.012339000962449886	-0.07389499822793855	0.535556896316602	3.845318483075566e-06	-0.06234315300865312	0.5433717494821151	0.018577485663203053	-0.0682389119374478	0.5105532401962305	0.03204934731278186	-0.061732158296274986	0.4622830810018609	-0.023011742144276925	-0.051989820119430985
3	0.10000000000000014	0.4727520099879755	-0.02659621429947223	-0.17265759329398644	0.4767758371318104	-0.027489900812390333	-0.15005205991091475	0.4781328909384769	-0.03008018325254458	-0.11906385502831407	0.4795262431149482	-0.02613466614465343	-0.07465235353980704	0.5066082145134723	-0.011112643682972934	-0.09770009855539341	0.5245000892748407	-0.01385343218843238	-0.09830746655903655	0.5401799243391281	-0.0007758191525301106	-0.11297473087928189	0.5011476005725592	0.01593386077642145	-0.11627630505741848	0.5066134689494176	-0.013423041028476468	-0.08625626370261674	0.5238118182730577	-0.009259993038945535	-0.08239805012909462	0.5435982246094214	0.0066477077857786115	-0.09671072733370512	0.5047476715684435	0.02862460420620827	-0.0986596945309316	0.5124387753831445	-0.0006310317767264095	-0.07223938328087964	0.5300352739645007	0.002955418079366834	-0.0738207166126158	0.5460996014014582	0.01900647102406894	-0.08404231445075216	0.5094454851862295	0.03549518887565273	-0.07964700079967135	0.5336906819320022	0.012752764981923348	-0.07391661400462346	0.5352806724012605	0.0003933983859740753	-0.062181283261325215	0.5432043965623763	0.018958779530903525	-0.06795650943542852	0.5103204903076755	0.032293396153010856	-0.06149739494708939	0.4622830810018609	-0.023011742144276925	-0.051989820119430985
4	0.13333333333333353	0.47283199925721203	-0.026423881664320747	-0.17279304610554136	0.4768110822669127	-0.027349072541506425	-0.1501808608895414	0.47812118697993206	-0.029987652542079135	-0.11919471041515217	0.4793676743649152	-0.02616216898151147	-0.07476834499182594	0.5063854750023205	-0.010972504369287206	-0.09761277968776161	0.5242901854887168	-0.013564559998776593	-0.09845098611338843	0.5400763013895604	-0.0006173053703223408	-0.11311989798002331	0.5009701303020102	0.015925380007545398	-0.11638838958321573	0.5062181326436606	-0.01330197383483478	-0.0851138898118784	0.5236466925690069	-0.009200758110781804	-0.08238894421363319	0.5434472179580243	0.00672794960153289	-0.09665866792975752	0.5046270990611257	0.028757260942730678	-0.09862226963662946	0.5120799323671807	-0.0003169837850237611	-0.0724216575270018	0.529717231907687	0.0031732595063175273	-0.0737422129729054	0.5458615792045979	0.01916430954382109	-0.08393173445601687	0.5092282086788049	0.03570721775647878	-0.07956719716237826	0.5251650377803736	-0.00963516348452731	-0.05270046962793595	0.5350896104288294	0.0006827505109352483	-0.06208361987333644	0.5430774554573002	0.019245644209643142	-0.06777794409413795	0.5101453279335102	0.03247161326344883	-0.061341161485985674	0.46228308100186094	-0.023011742144276925	-0.051989820119430985
5	0.1666666666666669	0.4729109368048873	-0.02626324924875334	-0.1728756493059872	0.47685017464680163	-0.027223426477529067	-0.15025794683835858	0.4781175662967289	-0.02991041430142405	-0.11927417988145139	0.4792733159116204	-0.026162800916441964	-0.07483872515502399	0.5062580874632774	-0.010873644030587437	-0.09755781558958587	0.5241712444326001	-0.013352927748161214	-0.09854369572437904	0.5400053489366679	-0.00046807576534313444	-0.1132158311154915	0.5008442039858474	0.015951183857279783	-0.11644828120570794	0.5060234262968575	-0.013148064795357683	-0.08457142758365477	0.5235480456262855	-0.009132697412914004	-0.0823886444651003	0.5433466298931904	0.0068183094446876424	-0.09663613516539604	0.504531944159304	0.02885741105294659	-0.09859728092246778	0.5118702144875692	-0.00014619179224761858	-0.0725106134154061	0.5295206972244877	0.003322568185972208	-0.07370567130824779	0.5457053498556447	0.01928887724712358	-0.08387001945127104	0.5090771598550095	0.035848039201861304	-0.07952367769823998	0.5278763886982573	-0.010565938121260499	-0.05148052417603066	0.5349728501359832	0.0008846251059206889	-0.0620410562101279	0.5429883324747572	0.01945025904306308	-0.06768740887258429	0.5100222813975696	0.03259236274197386	-0.06125250112318037	0.46228308100186094	-0.023011742144276925	-0.051989820119430985
